<svg id="Camada_1" data-name="Camada 1" xmlns="http://www.w3.org/2000/svg" viewBox="0 0 643.47 715.64"><defs><style>.cls-1,.cls-2{fill:#1d1d1b;}.cls-2{font-size:200.86px;font-family:QuicksandBold-Regular, Quicksand;}.cls-3{letter-spacing:-0.05em;}.cls-4{letter-spacing:-0.1em;}</style></defs><path class="cls-1" d="M785.93,526.21c0,29,.08,58,0,86.95,0,19.25-5.35,24.76-24.11,25q-24.4.25-48.81,0c-17.62-.17-23.59-7-23.48-24.06.32-52.37.88-104.75.1-157.1-.6-40.67-30.6-61.52-65-46.26-17,7.54-24.86,22-25,40-.4,52.37-.1,104.74-.12,157.12,0,26.38-4.25,30.53-31.16,30.56q-19.83,0-39.65-.1c-20.45-.15-26.92-6.76-27-27.72-.12-53.39.16-106.78-.38-160.17-.23-22.93-12.47-38.08-33.1-43.84-27.76-7.75-54.09,10.39-55.67,39.38-1.08,19.78-.42,39.65-.45,59.48-.05,35.59.08,71.18-.08,106.78-.08,17.78-6.92,24.63-24.91,25.09-14.74.37-29.5.53-44.23.32-20.58-.31-25.68-5.79-25.68-26.89,0-46.27.1-92.55.05-138.82,0-8.12-.31-16.27-.95-24.37-1.62-20.29-12.18-35.1-31.31-40.8-13.71-4.08-16.27-11.22-15.64-23.87,1-19.78.45-39.65.16-59.47-.16-11,3.75-15.74,15.53-14.05,25,3.58,48.77,10.26,68.56,26.79,6.95,5.8,12.2,6.12,19.9.5,48.12-35.1,117-40.94,168.77-1.07,6.37,4.9,10.5,4.6,17,.13,75.46-52.09,168.3-30.22,211.92,49.9a120.16,120.16,0,0,1,14.67,56.79C786.11,470.27,785.91,498.24,785.93,526.21Z" transform="translate(-218.26 -182.18)"/><path class="cls-1" d="M785.84,442.31a120.16,120.16,0,0,0-14.67-56.79c-28-51.39-76.21-78.82-127.12-78.13v98.35c25.56-1.44,45.09,18.45,45.57,51.19.78,52.35.22,104.73-.1,157.1-.11,17.11,5.86,23.89,23.48,24.06q24.4.24,48.81,0c18.76-.19,24.06-5.7,24.11-25,.09-29,0-58,0-86.95C785.91,498.24,786.11,470.27,785.84,442.31Z" transform="translate(-218.26 -182.18)"/><path class="cls-1" d="M648,307.39c-1.31,0-2.61,0-3.91,0Z" transform="translate(-218.26 -182.18)"/><path class="cls-1" d="M452.12,308.11a149.65,149.65,0,0,0-78.61,28.45c-7.7,5.62-12.95,5.3-19.9-.5-19.79-16.53-43.52-23.21-68.56-26.79-11.78-1.69-15.69,3-15.53,14.05.29,19.82.83,39.69-.16,59.47-.63,12.65,1.93,19.79,15.64,23.87,19.13,5.7,29.69,20.51,31.31,40.8.64,8.1.94,16.25.95,24.37.05,46.27-.06,92.55-.05,138.82,0,21.1,5.1,26.58,25.68,26.89,14.73.21,29.49.05,44.23-.32,18-.46,24.83-7.31,24.91-25.09.16-35.6,0-71.19.08-106.78,0-19.83-.63-39.7.45-59.48,1.26-23.26,18.47-39.52,39.56-41.05Z" transform="translate(-218.26 -182.18)"/><text class="cls-2" transform="translate(17.63 626.6)">M<tspan class="cls-3" x="169.53" y="0">U</tspan><tspan class="cls-4" x="323.79" y="0">L</tspan><tspan x="416.79" y="0">TI</tspan></text><circle class="cls-1" cx="425.79" cy="51.81" r="51.81"/><circle class="cls-1" cx="233.86" cy="51.81" r="51.81"/></svg>