<svg id="Camada_1" data-name="Camada 1" xmlns="http://www.w3.org/2000/svg" viewBox="0 0 643.47 715.64"><defs><style>.cls-1{fill:#90c1c8;}.cls-2{fill:#e86c24;}.cls-3{fill:#37848e;}.cls-4{font-size:200.86px;fill:#fff;font-family:QuicksandBold-Regular, Quicksand;}.cls-5{letter-spacing:-0.05em;}.cls-6{letter-spacing:-0.1em;}</style></defs><path class="cls-1" d="M773.56,519.33c0,29,.08,58,0,86.95,0,19.25-5.35,24.76-24.11,25q-24.41.24-48.81,0C683,631,677,624.27,677.14,607.15c.33-52.36.89-104.74.11-157.1-.6-40.67-30.6-61.52-65-46.26-17,7.55-24.86,22-25,40-.4,52.36-.1,104.74-.12,157.11,0,26.38-4.26,30.53-31.16,30.57q-19.83,0-39.66-.11c-20.44-.15-26.91-6.75-27-27.72-.11-53.39.17-106.78-.37-160.16-.23-22.93-12.47-38.09-33.1-43.85-27.76-7.75-54.1,10.4-55.68,39.39-1.07,19.77-.41,39.64-.44,59.47-.05,35.59.08,71.19-.08,106.78-.08,17.79-6.92,24.64-24.92,25.09-14.73.37-29.49.54-44.23.32-20.57-.3-25.67-5.78-25.67-26.89,0-46.27.1-92.54.05-138.81,0-8.13-.31-16.27-.95-24.37-1.62-20.29-12.18-35.1-31.31-40.8-13.71-4.09-16.27-11.23-15.64-23.87,1-19.78.45-39.65.16-59.48-.16-11,3.75-15.73,15.52-14,25.05,3.58,48.77,10.25,68.57,26.78,6.95,5.81,12.2,6.13,19.9.51,48.12-35.11,117-40.95,168.77-1.08,6.37,4.91,10.5,4.6,17,.14,75.46-52.1,168.3-30.22,211.92,49.89a120.23,120.23,0,0,1,14.67,56.8C773.74,463.4,773.54,491.37,773.56,519.33Z" transform="translate(-205.89 -175.31)"/><path class="cls-2" d="M773.47,435.44a120.23,120.23,0,0,0-14.67-56.8c-28-51.39-76.21-78.81-127.12-78.12v98.35c25.56-1.44,45.09,18.45,45.57,51.18.78,52.36.22,104.74-.11,157.1C677,624.27,683,631,700.63,631.21q24.4.25,48.81,0c18.76-.2,24.06-5.71,24.11-25,.09-29,0-58,0-86.95C773.54,491.37,773.74,463.4,773.47,435.44Z" transform="translate(-205.89 -175.31)"/><path class="cls-3" d="M635.59,300.52c-1.3,0-2.6,0-3.91,0Z" transform="translate(-205.89 -175.31)"/><path class="cls-3" d="M439.75,301.24a149.56,149.56,0,0,0-78.61,28.45c-7.7,5.62-12.95,5.3-19.9-.51-19.8-16.53-43.52-23.2-68.57-26.78-11.77-1.69-15.68,3-15.52,14,.29,19.83.82,39.7-.16,59.48-.63,12.64,1.93,19.78,15.64,23.87,19.13,5.7,29.69,20.51,31.31,40.8.64,8.1.94,16.24.95,24.37.05,46.27-.06,92.54-.05,138.81,0,21.11,5.1,26.59,25.67,26.89,14.74.22,29.5.05,44.23-.32,18-.45,24.84-7.3,24.92-25.09.16-35.59,0-71.19.08-106.78,0-19.83-.63-39.7.44-59.47,1.27-23.26,18.48-39.53,39.57-41.05Z" transform="translate(-205.89 -175.31)"/><text class="cls-4" transform="translate(17.63 626.6)">M<tspan class="cls-5" x="169.53" y="0">U</tspan><tspan class="cls-6" x="323.79" y="0">L</tspan><tspan x="416.79" y="0">TI</tspan></text><circle class="cls-2" cx="425.79" cy="51.81" r="51.81"/><circle class="cls-1" cx="233.86" cy="51.81" r="51.81"/></svg>